<?xml version="1.0" encoding="utf-8"?>
<!-- Generator: Adobe Illustrator 24.0.0, SVG Export Plug-In . SVG Version: 6.00 Build 0)  -->
<svg version="1.1" id="Calque_1" xmlns="http://www.w3.org/2000/svg" xmlns:xlink="http://www.w3.org/1999/xlink" x="0px" y="0px"
	 width="325.8321px" height="110.5512px" viewBox="0 0 325.8321 110.5512" style="enable-background:new 0 0 325.8321 110.5512;"
	 xml:space="preserve">
<style type="text/css">
	.st0{fill:#24336A;}
	.st1{fill:#1DB3B3;}
	.st2{fill:#E53512;}
	.st3{fill:#F7AC1F;}
	.st4{fill:#006CB4;}
</style>
<g>
	<g>
		<path class="st0" d="M136.884,25.297c-1.0184-0.3556-1.8177-0.8141-2.4005-1.3808l0.7695-1.6972
			c0.5531,0.5234,1.2645,0.9467,2.1301,1.2739c0.8669,0.3246,1.7568,0.4882,2.671,0.4882c1.205,0,2.107-0.2137,2.7007-0.6424
			c0.5978-0.426,0.8953-0.9967,0.8953-1.7067c0-0.5206-0.1623-0.944-0.4869-1.2713c-0.3273-0.3273-0.7289-0.5748-1.2077-0.7506
			c-0.4788-0.1731-1.1536-0.3692-2.0273-0.5869c-1.0941-0.2745-1.9772-0.5491-2.6494-0.8264
			c-0.6721-0.2745-1.2469-0.6992-1.7257-1.2712c-0.4788-0.5734-0.7168-1.3457-0.7168-2.3153c0-0.8128,0.2029-1.5458,0.6126-2.1977
			c0.4098-0.6532,1.0305-1.1739,1.8609-1.5648c0.8304-0.3935,1.8636-0.5869,3.097-0.5869c0.8588,0,1.704,0.1149,2.5358,0.3476
			c0.8331,0.2326,1.5458,0.5639,2.1422,0.9994l-0.687,1.7392c-0.6099-0.4043-1.2618-0.714-1.9529-0.9223
			c-0.6938-0.211-1.3727-0.3178-2.0381-0.3178c-1.1766,0-2.0624,0.2258-2.6494,0.6748c-0.5897,0.4504-0.8831,1.0306-0.8831,1.7406
			c0,0.5207,0.165,0.944,0.4977,1.2713c0.3327,0.3273,0.7452,0.5802,1.2374,0.7628c0.4923,0.1799,1.1604,0.3705,2.0056,0.5748
			c1.0941,0.2745,1.9745,0.5518,2.6399,0.8264c0.6654,0.2745,1.2374,0.6965,1.7135,1.2618
			c0.4787,0.5667,0.7181,1.3254,0.7181,2.2828c0,0.798-0.2069,1.5269-0.6235,2.1855c-0.4165,0.6599-1.0454,1.1806-1.8907,1.5661
			c-0.8453,0.3841-1.8853,0.5761-3.1187,0.5761C138.9572,25.8298,137.9024,25.6527,136.884,25.297"/>
		<path class="st0" d="M151.32,24.8179c-1.1793-0.6735-2.1016-1.6039-2.7738-2.7927c-0.6735-1.1888-1.0089-2.5169-1.0089-3.9802
			c0-1.466,0.3354-2.7914,1.0089-3.9801c0.6722-1.1888,1.5945-2.1192,2.7738-2.7941c1.1766-0.6748,2.5006-1.0102,3.9707-1.0102
			c1.4566,0,2.7724,0.3354,3.949,1.0102c1.1793,0.6749,2.1003,1.6013,2.7657,2.7819c0.6654,1.1847,0.9967,2.5128,0.9967,3.9923
			c0,1.4768-0.3313,2.8076-0.9967,3.9896c-0.6654,1.1806-1.5864,2.1098-2.7657,2.7832c-1.1766,0.6749-2.4925,1.0116-3.949,1.0116
			C153.8206,25.8296,152.4966,25.4928,151.32,24.8179 M158.1699,23.1328c0.852-0.5072,1.5242-1.2077,2.0164-2.0976
			c0.4936-0.8926,0.7398-1.8893,0.7398-2.9902s-0.2461-2.1003-0.7398-2.9902c-0.4923-0.8926-1.1644-1.5918-2.0164-2.0976
			c-0.852-0.5098-1.8109-0.7628-2.8793-0.7628c-1.0671,0-2.034,0.2529-2.8996,0.7628c-0.8669,0.5058-1.5471,1.205-2.0367,2.0976
			c-0.4923,0.8899-0.7384,1.8893-0.7384,2.9902s0.2461,2.0976,0.7384,2.9902c0.4896,0.8899,1.1698,1.5904,2.0367,2.0976
			c0.8655,0.5072,1.8325,0.7601,2.8996,0.7601C156.3591,23.8929,157.3179,23.64,158.1699,23.1328"/>
	</g>
	<polygon class="st0" points="179.6754,25.6556 179.6537,14.5659 174.3956,23.8069 173.4394,23.8069 168.1813,14.6295 
		168.1813,25.6556 166.1851,25.6556 166.1851,10.4343 167.8891,10.4343 173.9574,21.1305 179.9459,10.4343 181.6499,10.4343 
		181.6715,25.6556 	"/>
	<polygon class="st0" points="199.5274,25.6556 199.5057,14.5659 194.2476,23.8069 193.2914,23.8069 188.0319,14.6295 
		188.0319,25.6556 186.0371,25.6556 186.0371,10.4343 187.7411,10.4343 193.8094,21.1305 199.7965,10.4343 201.5019,10.4343 
		201.5235,25.6556 	"/>
	<polygon class="st0" points="216.4485,23.764 216.4485,25.656 205.8889,25.656 205.8889,10.4347 216.1577,10.4347 
		216.1577,12.3267 207.9676,12.3267 207.9676,17.002 215.2652,17.002 215.2652,18.8494 207.9676,18.8494 207.9676,23.764 	"/>
	<polygon class="st0" points="222.7057,12.3258 217.7167,12.3258 217.7167,10.4338 229.7544,10.4338 229.7544,12.3258 
		224.7627,12.3258 224.7627,25.6551 222.7057,25.6551 	"/>
	<path class="st0" d="M139.5192,48.0888l-1.278,3.2458h-4.6131l7.6005-17.6314h4.609l7.4274,17.6314h-4.7821l-1.255-3.2458H139.5192
		z M143.3925,38.1662l-2.5682,6.5159h5.0877L143.3925,38.1662z"/>
	<g>
		<path class="st0" d="M160.3969,36.2909c-0.28,0.2583-0.4193,0.6208-0.4193,1.0887v0.9832h3.0754v2.8766h-3.0754v10.0957h-4.302
			V41.2394h-1.8433v-2.8766h1.8433v-1.255c0-1.4592,0.4855-2.5993,1.4566-3.4229c0.9697-0.8236,2.2152-1.2361,3.7313-1.2361
			c0.6722,0,1.3416,0.0852,2.0097,0.2529c0.6708,0.1677,1.2672,0.403,1.7906,0.706l-1.5363,3.0497
			c-0.2394-0.188-0.5031-0.3273-0.7939-0.4166c-0.2908-0.0906-0.5734-0.1379-0.8425-0.1379
			C161.0407,35.9028,160.6769,36.0327,160.3969,36.2909"/>
		<path class="st0" d="M170.7622,38.2279c0.7452-0.426,1.6053-0.6491,2.5831-0.6654v3.9233
			c-0.1325-0.0163-0.334-0.0243-0.6045-0.0243c-1.0724,0-1.9502,0.261-2.6291,0.779c-0.683,0.5207-1.0711,1.2293-1.1698,2.1219
			v6.973h-4.3642V37.7586h4.3642v2.2896C169.4098,39.2598,170.0157,38.6539,170.7622,38.2279"/>
		<path class="st0" d="M179.1655,32.2087c0.4314,0.4314,0.6465,0.9832,0.6465,1.6527c0,0.6735-0.215,1.2266-0.6465,1.6621
			c-0.4314,0.4341-0.9819,0.6519-1.6526,0.6519c-0.6722,0-1.2212-0.2178-1.6472-0.6519c-0.426-0.4355-0.6397-0.9886-0.6397-1.6621
			c0-0.6695,0.2137-1.2212,0.6397-1.6527c0.426-0.4301,0.9751-0.6451,1.6472-0.6451
			C178.1837,31.5636,178.7341,31.7787,179.1655,32.2087 M175.3233,37.7617h4.3399v13.5728h-4.3399V37.7617z"/>
		<path class="st0" d="M196.8158,56.2164h-4.3534v-6.6647c-0.9899,1.3118-2.3505,1.9624-4.0816,1.9556
			c-1.2618,0-2.3694-0.2935-3.3242-0.8791c-0.9575-0.587-1.6973-1.4079-2.2261-2.4668c-0.5301-1.0562-0.7925-2.2828-0.7925-3.6745
			c0-1.3781,0.2597-2.5871,0.7817-3.6272c0.518-1.0413,1.2496-1.846,2.1936-2.4167c0.9426-0.568,2.0313-0.8547,3.2701-0.8547
			c0.8926,0,1.6932,0.1677,2.3978,0.5044c0.7032,0.3354,1.2983,0.8236,1.7811,1.4633v-1.7946h4.3534V56.2164z M191.6334,47.1553
			c0.5545-0.6559,0.829-1.5133,0.829-2.5709c0-1.04-0.2745-1.8893-0.829-2.5453c-0.5545-0.6559-1.2848-0.9832-2.195-0.9832
			c-0.9088,0-1.6378,0.3246-2.1868,0.971c-0.5491,0.6492-0.8331,1.5012-0.8507,2.5574c0.0176,1.0576,0.3029,1.915,0.8547,2.5709
			c0.5545,0.6559,1.2807,0.9832,2.1828,0.9832C190.3486,48.1385,191.0789,47.8112,191.6334,47.1553"/>
		<path class="st0" d="M213.6371,51.3346h-4.3656v-2.2369c-0.9264,1.6148-2.3937,2.4168-4.4021,2.41
			c-1.4741,0-2.6534-0.4693-3.5338-1.4092c-0.8818-0.9372-1.3213-2.199-1.3213-3.7814v-8.5553h4.3507v7.3273
			c0,0.802,0.2069,1.4376,0.6167,1.8988c0.4084,0.4639,0.9589,0.6965,1.6472,0.6965c0.8196-0.0176,1.466-0.3219,1.9367-0.9169
			c0.4706-0.5937,0.7059-1.3632,0.7059-2.3058v-6.6998h4.3656V51.3346z"/>
		<path class="st0" d="M228.1393,39.5377c1.1833,1.2834,1.7757,3.0686,1.7757,5.3555c0,0.3665-0.0081,0.6437-0.0243,0.8236h-9.5412
			c0.2204,0.802,0.6059,1.4227,1.155,1.8609c0.5491,0.4409,1.2293,0.6586,2.0408,0.6586c0.6059,0,1.1847-0.1163,1.7337-0.3516
			c0.5491-0.234,1.0536-0.5788,1.5134-1.0387l2.2869,2.2518c-0.7059,0.7695-1.5607,1.3605-2.5696,1.7703
			c-1.0089,0.4098-2.1233,0.614-3.3459,0.614c-1.4579,0-2.7292-0.284-3.8111-0.8547c-1.0819-0.568-1.9177-1.374-2.5074-2.4154
			c-0.5897-1.0414-0.8858-2.2491-0.8858-3.6272c0-1.3781,0.2989-2.5953,0.898-3.6529c0.5991-1.0562,1.4295-1.8758,2.4952-2.4533
			s2.2964-0.8669,3.6894-0.8669C225.2559,37.6119,226.9546,38.2543,228.1393,39.5377 M224.9922,41.3864
			c-0.4801-0.5004-1.1144-0.7478-1.9015-0.7478c-0.7357,0-1.3592,0.2461-1.8636,0.7357c-0.5031,0.4923-0.8263,1.1604-0.9629,2.0056
			h5.4461C225.7103,42.5509,225.471,41.8881,224.9922,41.3864"/>
	</g>
	<rect x="231.8972" y="42.2476" class="st0" width="6.639" height="2.7413"/>
	<polygon class="st0" points="246.1582,37.2316 246.1582,41.3131 254.063,41.3131 254.063,44.8429 246.1582,44.8429 
		246.1582,51.3358 241.6682,51.3358 241.6682,33.7045 254.7406,33.7045 254.7406,37.2316 	"/>
	<g>
		<path class="st0" d="M263.027,38.2279c0.7465-0.426,1.608-0.6491,2.5831-0.6654v3.9233c-0.1325-0.0163-0.334-0.0243-0.6031-0.0243
			c-1.0725,0-1.9515,0.261-2.6305,0.779c-0.6816,0.5207-1.0711,1.2293-1.1698,2.1219v6.973h-4.3643V37.7586h4.3643v2.2896
			C261.6746,39.2598,262.2818,38.6539,263.027,38.2279"/>
		<path class="st0" d="M277.646,38.8603c1.0332,0.8642,1.558,2.0679,1.5742,3.6082v8.8677h-4.2533v-1.5634
			c-0.4355,0.5734-1.0049,1.0116-1.7094,1.3092c-0.706,0.3016-1.5201,0.4504-2.4465,0.4504c-1.4268,0-2.5615-0.3936-3.4-1.182
			c-0.8398-0.7857-1.2618-1.8109-1.2618-3.0727c0-1.2956,0.4503-2.2991,1.3484-3.0145c0.8966-0.7127,2.1841-1.0765,3.8652-1.0928
			h3.5771v-0.1974c0-0.6722-0.2191-1.1955-0.6627-1.5715c-0.4422-0.3787-1.1022-0.568-1.9786-0.568
			c-0.5734,0-1.2172,0.096-1.9299,0.2908c-0.7154,0.192-1.4228,0.4734-2.1287,0.8412l-1.2294-2.8658
			c1.1063-0.5152,2.1598-0.902,3.1619-1.155c0.9995-0.2529,2.0421-0.3814,3.1335-0.3814
			C275.1671,37.5633,276.6141,37.9961,277.646,38.8603 M273.9648,48.0756c0.5193-0.3435,0.8452-0.7925,0.9751-1.3524v-1.205h-2.7413
			c-0.6559,0-1.1455,0.1163-1.4741,0.3503c-0.3273,0.2353-0.4909,0.6045-0.4909,1.113c0,0.4991,0.1663,0.8953,0.5017,1.182
			c0.3368,0.2854,0.8074,0.4287,1.416,0.4287C272.8382,48.5922,273.4441,48.4218,273.9648,48.0756"/>
		<path class="st0" d="M294.805,38.9836c0.9047,0.9481,1.3591,2.2112,1.3591,3.7935v8.558h-4.3398v-7.3531
			c0-0.7857-0.2137-1.4119-0.6397-1.8758c-0.426-0.4612-1.0089-0.6938-1.7473-0.6938c-0.7695,0-1.4038,0.2516-1.8987,0.756
			c-0.4964,0.5045-0.7858,1.1671-0.8655,1.9867v7.18h-4.3669V37.7597h4.3669v2.2139c0.9588-1.5823,2.4668-2.3843,4.5238-2.41
			C292.6952,37.5636,293.8975,38.0369,294.805,38.9836"/>
		<path class="st0" d="M308.754,38.4057c1.0494,0.5275,1.8677,1.2808,2.46,2.2559l-3.1227,1.8825
			c-0.6721-0.9427-1.5864-1.4106-2.7427-1.4011c-0.8372,0-1.5188,0.3124-2.0475,0.9399c-0.5275,0.6275-0.7925,1.4538-0.7925,2.4762
			c0,1.0413,0.2583,1.8771,0.7736,2.51c0.5167,0.6289,1.205,0.9467,2.0665,0.9467c1.2794,0,2.2003-0.5139,2.7657-1.5364
			l3.1728,1.8555c-0.5585,1.0089-1.3659,1.7852-2.4289,2.3302c-1.0603,0.5437-2.3086,0.8169-3.7435,0.8169
			c-1.3781,0-2.5926-0.2894-3.6461-0.8669c-1.0535-0.5775-1.8744-1.3876-2.4641-2.4289c-0.5923-1.04-0.8858-2.2423-0.8858-3.6015
			c0-1.3781,0.2935-2.5939,0.8858-3.6528c0.5897-1.0562,1.4173-1.8758,2.483-2.4533c1.0657-0.5775,2.2937-0.8656,3.6894-0.8656
			C306.5117,37.6132,307.7058,37.8783,308.754,38.4057"/>
		<path class="st0" d="M324.0564,39.5377c1.1833,1.2834,1.7757,3.0686,1.7757,5.3555c0,0.3665-0.0081,0.6437-0.0244,0.8236h-9.5412
			c0.2218,0.802,0.6059,1.4227,1.155,1.8609c0.5491,0.4409,1.232,0.6586,2.0408,0.6586c0.6086,0,1.1847-0.1163,1.7337-0.3516
			c0.5491-0.234,1.0536-0.5788,1.512-1.0387l2.2869,2.2518c-0.7046,0.7695-1.5594,1.3605-2.5682,1.7703
			c-1.0089,0.4098-2.1233,0.614-3.3459,0.614c-1.4579,0-2.7292-0.284-3.8111-0.8547c-1.0819-0.568-1.9177-1.374-2.5074-2.4154
			c-0.5897-1.0414-0.8858-2.2491-0.8858-3.6272c0-1.3781,0.2989-2.5953,0.898-3.6529c0.5991-1.0562,1.4295-1.8758,2.4952-2.4533
			c1.0657-0.5775,2.2964-0.8669,3.688-0.8669C321.1717,37.6119,322.8717,38.2543,324.0564,39.5377 M320.9094,41.3864
			c-0.4801-0.5004-1.1144-0.7478-1.9015-0.7478c-0.7357,0-1.3592,0.2461-1.8636,0.7357c-0.5031,0.4923-0.8236,1.1604-0.9629,2.0056
			h5.4461C321.6275,42.5509,321.3881,41.8881,320.9094,41.3864"/>
	</g>
	<g>
		<path class="st1" d="M70.1986,8.9148c-0.6613,0-1.1969-0.5369-1.1969-1.1982s0.5355-1.1969,1.1969-1.1969
			c0.6613,0,1.1982,0.5355,1.1982,1.1969S70.86,8.9148,70.1986,8.9148"/>
		<path class="st1" d="M70.1986,13.972c-0.6613,0-1.1969-0.5355-1.1969-1.1982c0-0.6613,0.5355-1.1969,1.1969-1.1969
			c0.6613,0,1.1982,0.5355,1.1982,1.1969C71.3969,13.4364,70.86,13.972,70.1986,13.972"/>
		<path class="st1" d="M70.1986,19.029c-0.6613,0-1.1969-0.5355-1.1969-1.1982c0-0.6613,0.5355-1.1969,1.1969-1.1969
			c0.6613,0,1.1982,0.5355,1.1982,1.1969C71.3969,18.4935,70.86,19.029,70.1986,19.029"/>
		<path class="st1" d="M70.1986,24.0865c-0.6613,0-1.1969-0.5369-1.1969-1.1982c0-0.6613,0.5355-1.1969,1.1969-1.1969
			c0.6613,0,1.1982,0.5355,1.1982,1.1969C71.3969,23.5496,70.86,24.0865,70.1986,24.0865"/>
		<path class="st1" d="M70.1986,29.1435c-0.6613,0-1.1969-0.5369-1.1969-1.1982c0-0.6613,0.5355-1.1969,1.1969-1.1969
			c0.6613,0,1.1982,0.5355,1.1982,1.1969C71.3969,28.6067,70.86,29.1435,70.1986,29.1435"/>
		<path class="st1" d="M70.1986,34.2007c-0.6613,0-1.1969-0.5369-1.1969-1.1982c0-0.6613,0.5355-1.1969,1.1969-1.1969
			c0.6613,0,1.1982,0.5355,1.1982,1.1969C71.3969,33.6639,70.86,34.2007,70.1986,34.2007"/>
		<path class="st1" d="M70.1986,3.8576c-0.6613,0-1.1969-0.5369-1.1969-1.1982s0.5355-1.1969,1.1969-1.1969
			c0.6613,0,1.1982,0.5355,1.1982,1.1969S70.86,3.8576,70.1986,3.8576"/>
		<path class="st1" d="M65.1417,8.9148c-0.6613,0-1.1969-0.5369-1.1969-1.1982s0.5355-1.1969,1.1969-1.1969
			c0.6613,0,1.1982,0.5355,1.1982,1.1969S65.8031,8.9148,65.1417,8.9148"/>
		<path class="st1" d="M65.1417,13.972c-0.6613,0-1.1969-0.5355-1.1969-1.1982c0-0.6613,0.5355-1.1969,1.1969-1.1969
			c0.6613,0,1.1982,0.5355,1.1982,1.1969C66.3399,13.4364,65.8031,13.972,65.1417,13.972"/>
		<path class="st1" d="M65.1417,19.029c-0.6613,0-1.1969-0.5355-1.1969-1.1982c0-0.6613,0.5355-1.1969,1.1969-1.1969
			c0.6613,0,1.1982,0.5355,1.1982,1.1969C66.3399,18.4935,65.8031,19.029,65.1417,19.029"/>
		<path class="st1" d="M65.1417,24.0865c-0.6613,0-1.1969-0.5369-1.1969-1.1982c0-0.6613,0.5355-1.1969,1.1969-1.1969
			c0.6613,0,1.1982,0.5355,1.1982,1.1969C66.3399,23.5496,65.8031,24.0865,65.1417,24.0865"/>
		<path class="st1" d="M65.1417,29.1435c-0.6613,0-1.1969-0.5369-1.1969-1.1982c0-0.6613,0.5355-1.1969,1.1969-1.1969
			c0.6613,0,1.1982,0.5355,1.1982,1.1969C66.3399,28.6067,65.8031,29.1435,65.1417,29.1435"/>
		<path class="st1" d="M65.1417,34.2007c-0.6613,0-1.1969-0.5369-1.1969-1.1982c0-0.6613,0.5355-1.1969,1.1969-1.1969
			c0.6613,0,1.1982,0.5355,1.1982,1.1969C66.3399,33.6639,65.8031,34.2007,65.1417,34.2007"/>
		<path class="st1" d="M65.1417,3.8576c-0.6613,0-1.1969-0.5369-1.1969-1.1982s0.5355-1.1969,1.1969-1.1969
			c0.6613,0,1.1982,0.5355,1.1982,1.1969S65.8031,3.8576,65.1417,3.8576"/>
		<path class="st1" d="M60.0844,8.9148c-0.6613,0-1.1969-0.5369-1.1969-1.1982s0.5355-1.1969,1.1969-1.1969
			c0.6613,0,1.1982,0.5355,1.1982,1.1969S60.7457,8.9148,60.0844,8.9148"/>
		<path class="st1" d="M60.0844,13.972c-0.6613,0-1.1969-0.5355-1.1969-1.1982c0-0.6613,0.5355-1.1969,1.1969-1.1969
			c0.6613,0,1.1982,0.5355,1.1982,1.1969C61.2826,13.4364,60.7457,13.972,60.0844,13.972"/>
		<path class="st1" d="M60.0844,19.029c-0.6613,0-1.1969-0.5355-1.1969-1.1982c0-0.6613,0.5355-1.1969,1.1969-1.1969
			c0.6613,0,1.1982,0.5355,1.1982,1.1969C61.2826,18.4935,60.7457,19.029,60.0844,19.029"/>
		<path class="st1" d="M60.0844,24.0865c-0.6613,0-1.1969-0.5369-1.1969-1.1982c0-0.6613,0.5355-1.1969,1.1969-1.1969
			c0.6613,0,1.1982,0.5355,1.1982,1.1969C61.2826,23.5496,60.7457,24.0865,60.0844,24.0865"/>
		<path class="st1" d="M60.0844,29.1435c-0.6613,0-1.1969-0.5369-1.1969-1.1982c0-0.6613,0.5355-1.1969,1.1969-1.1969
			c0.6613,0,1.1982,0.5355,1.1982,1.1969C61.2826,28.6067,60.7457,29.1435,60.0844,29.1435"/>
		<path class="st1" d="M60.0844,34.2007c-0.6613,0-1.1969-0.5369-1.1969-1.1982c0-0.6613,0.5355-1.1969,1.1969-1.1969
			c0.6613,0,1.1982,0.5355,1.1982,1.1969C61.2826,33.6639,60.7457,34.2007,60.0844,34.2007"/>
		<path class="st1" d="M60.0844,3.8576c-0.6613,0-1.1969-0.5369-1.1969-1.1982s0.5355-1.1969,1.1969-1.1969
			c0.6613,0,1.1982,0.5355,1.1982,1.1969S60.7457,3.8576,60.0844,3.8576"/>
		<path class="st1" d="M55.0273,8.9148c-0.6613,0-1.1982-0.5369-1.1982-1.1982s0.5369-1.1969,1.1982-1.1969
			c0.6613,0,1.1969,0.5355,1.1969,1.1969S55.6887,8.9148,55.0273,8.9148"/>
		<path class="st1" d="M55.0273,13.972c-0.6613,0-1.1982-0.5355-1.1982-1.1982c0-0.6613,0.5369-1.1969,1.1982-1.1969
			c0.6613,0,1.1969,0.5355,1.1969,1.1969C56.2242,13.4364,55.6887,13.972,55.0273,13.972"/>
		<path class="st1" d="M55.0273,19.029c-0.6613,0-1.1982-0.5355-1.1982-1.1982c0-0.6613,0.5369-1.1969,1.1982-1.1969
			c0.6613,0,1.1969,0.5355,1.1969,1.1969C56.2242,18.4935,55.6887,19.029,55.0273,19.029"/>
		<path class="st1" d="M55.0273,24.0865c-0.6613,0-1.1982-0.5369-1.1982-1.1982c0-0.6613,0.5369-1.1969,1.1982-1.1969
			c0.6613,0,1.1969,0.5355,1.1969,1.1969C56.2242,23.5496,55.6887,24.0865,55.0273,24.0865"/>
		<path class="st1" d="M55.0273,29.1435c-0.6613,0-1.1982-0.5369-1.1982-1.1982c0-0.6613,0.5369-1.1969,1.1982-1.1969
			c0.6613,0,1.1969,0.5355,1.1969,1.1969C56.2242,28.6067,55.6887,29.1435,55.0273,29.1435"/>
		<path class="st1" d="M55.0273,34.2007c-0.6613,0-1.1982-0.5369-1.1982-1.1982c0-0.6613,0.5369-1.1969,1.1982-1.1969
			c0.6613,0,1.1969,0.5355,1.1969,1.1969C56.2242,33.6639,55.6887,34.2007,55.0273,34.2007"/>
		<path class="st1" d="M55.0273,3.8576c-0.6613,0-1.1982-0.5369-1.1982-1.1982s0.5369-1.1969,1.1982-1.1969
			c0.6613,0,1.1969,0.5355,1.1969,1.1969S55.6887,3.8576,55.0273,3.8576"/>
		<path class="st1" d="M49.97,8.9148c-0.6613,0-1.1982-0.5369-1.1982-1.1982s0.5369-1.1969,1.1982-1.1969
			c0.6613,0,1.1982,0.5355,1.1982,1.1969S50.6313,8.9148,49.97,8.9148"/>
		<path class="st1" d="M49.97,13.972c-0.6613,0-1.1982-0.5355-1.1982-1.1982c0-0.6613,0.5369-1.1969,1.1982-1.1969
			c0.6613,0,1.1982,0.5355,1.1982,1.1969C51.1682,13.4364,50.6313,13.972,49.97,13.972"/>
		<path class="st1" d="M49.97,19.029c-0.6613,0-1.1982-0.5355-1.1982-1.1982c0-0.6613,0.5369-1.1969,1.1982-1.1969
			c0.6613,0,1.1982,0.5355,1.1982,1.1969C51.1682,18.4935,50.6313,19.029,49.97,19.029"/>
		<path class="st1" d="M49.97,24.0865c-0.6613,0-1.1982-0.5369-1.1982-1.1982c0-0.6613,0.5369-1.1969,1.1982-1.1969
			c0.6613,0,1.1982,0.5355,1.1982,1.1969C51.1682,23.5496,50.6313,24.0865,49.97,24.0865"/>
		<path class="st1" d="M49.97,29.1435c-0.6613,0-1.1982-0.5369-1.1982-1.1982c0-0.6613,0.5369-1.1969,1.1982-1.1969
			c0.6613,0,1.1982,0.5355,1.1982,1.1969C51.1682,28.6067,50.6313,29.1435,49.97,29.1435"/>
		<path class="st1" d="M49.97,34.2007c-0.6613,0-1.1982-0.5369-1.1982-1.1982c0-0.6613,0.5369-1.1969,1.1982-1.1969
			c0.6613,0,1.1982,0.5355,1.1982,1.1969C51.1682,33.6639,50.6313,34.2007,49.97,34.2007"/>
		<path class="st1" d="M49.97,3.8576c-0.6613,0-1.1982-0.5369-1.1982-1.1982s0.5369-1.1969,1.1982-1.1969
			c0.6613,0,1.1982,0.5355,1.1982,1.1969S50.6313,3.8576,49.97,3.8576"/>
		<path class="st1" d="M44.9131,8.9148c-0.6613,0-1.1982-0.5369-1.1982-1.1982s0.5369-1.1969,1.1982-1.1969
			c0.6613,0,1.1969,0.5355,1.1969,1.1969S45.5744,8.9148,44.9131,8.9148"/>
		<path class="st1" d="M44.9131,13.972c-0.6613,0-1.1982-0.5355-1.1982-1.1982c0-0.6613,0.5369-1.1969,1.1982-1.1969
			c0.6613,0,1.1969,0.5355,1.1969,1.1969C46.11,13.4364,45.5744,13.972,44.9131,13.972"/>
		<path class="st1" d="M44.9131,19.029c-0.6613,0-1.1982-0.5355-1.1982-1.1982c0-0.6613,0.5369-1.1969,1.1982-1.1969
			c0.6613,0,1.1969,0.5355,1.1969,1.1969C46.11,18.4935,45.5744,19.029,44.9131,19.029"/>
		<path class="st1" d="M44.9131,24.0865c-0.6613,0-1.1982-0.5369-1.1982-1.1982c0-0.6613,0.5369-1.1969,1.1982-1.1969
			c0.6613,0,1.1969,0.5355,1.1969,1.1969C46.11,23.5496,45.5744,24.0865,44.9131,24.0865"/>
		<path class="st1" d="M44.9131,29.1435c-0.6613,0-1.1982-0.5369-1.1982-1.1982c0-0.6613,0.5369-1.1969,1.1982-1.1969
			c0.6613,0,1.1969,0.5355,1.1969,1.1969C46.11,28.6067,45.5744,29.1435,44.9131,29.1435"/>
		<path class="st1" d="M44.9131,34.2007c-0.6613,0-1.1982-0.5369-1.1982-1.1982c0-0.6613,0.5369-1.1969,1.1982-1.1969
			c0.6613,0,1.1969,0.5355,1.1969,1.1969C46.11,33.6639,45.5744,34.2007,44.9131,34.2007"/>
		<path class="st1" d="M44.9131,3.8576c-0.6613,0-1.1982-0.5369-1.1982-1.1982s0.5369-1.1969,1.1982-1.1969
			c0.6613,0,1.1969,0.5355,1.1969,1.1969S45.5744,3.8576,44.9131,3.8576"/>
		<path class="st1" d="M39.8558,8.9148c-0.6613,0-1.1969-0.5369-1.1969-1.1982s0.5355-1.1969,1.1969-1.1969
			c0.6613,0,1.1969,0.5355,1.1969,1.1969S40.5171,8.9148,39.8558,8.9148"/>
		<path class="st1" d="M39.8558,13.972c-0.6613,0-1.1969-0.5355-1.1969-1.1982c0-0.6613,0.5355-1.1969,1.1969-1.1969
			c0.6613,0,1.1969,0.5355,1.1969,1.1969C41.0526,13.4364,40.5171,13.972,39.8558,13.972"/>
		<path class="st1" d="M39.8558,19.029c-0.6613,0-1.1969-0.5355-1.1969-1.1982c0-0.6613,0.5355-1.1969,1.1969-1.1969
			c0.6613,0,1.1969,0.5355,1.1969,1.1969C41.0526,18.4935,40.5171,19.029,39.8558,19.029"/>
		<path class="st1" d="M39.8558,24.0865c-0.6613,0-1.1969-0.5369-1.1969-1.1982c0-0.6613,0.5355-1.1969,1.1969-1.1969
			c0.6613,0,1.1969,0.5355,1.1969,1.1969C41.0526,23.5496,40.5171,24.0865,39.8558,24.0865"/>
		<path class="st1" d="M39.8558,29.1435c-0.6613,0-1.1969-0.5369-1.1969-1.1982c0-0.6613,0.5355-1.1969,1.1969-1.1969
			c0.6613,0,1.1969,0.5355,1.1969,1.1969C41.0526,28.6067,40.5171,29.1435,39.8558,29.1435"/>
		<path class="st1" d="M39.8558,34.2007c-0.6613,0-1.1969-0.5369-1.1969-1.1982c0-0.6613,0.5355-1.1969,1.1969-1.1969
			c0.6613,0,1.1969,0.5355,1.1969,1.1969C41.0526,33.6639,40.5171,34.2007,39.8558,34.2007"/>
		<path class="st1" d="M39.8558,3.8576c-0.6613,0-1.1969-0.5369-1.1969-1.1982s0.5355-1.1969,1.1969-1.1969
			c0.6613,0,1.1969,0.5355,1.1969,1.1969S40.5171,3.8576,39.8558,3.8576"/>
	</g>
	<rect x="36.7543" y="36.7464" class="st2" width="36.7314" height="3.0605"/>
	<rect x="36.7543" y="42.8688" class="st2" width="36.7314" height="3.0605"/>
	<rect x="36.7543" y="48.9911" class="st2" width="36.7314" height="3.0605"/>
	<rect x="36.7543" y="55.1121" class="st2" width="36.7314" height="3.0605"/>
	<rect x="36.7543" y="61.2344" class="st2" width="36.7314" height="3.0605"/>
	<rect x="36.7543" y="67.3568" class="st2" width="36.7314" height="3.0605"/>
	<polygon class="st0" points="73.4936,36.7467 73.4936,0.0005 110.2398,36.7467 	"/>
	<g>
		<path class="st2" d="M81.748,1.9972c0.6627,0,1.1982,0.5369,1.1982,1.1983c0,0.6613-0.5356,1.1982-1.1982,1.1982
			c-0.6613,0-1.1982-0.5369-1.1982-1.1982C80.5498,2.5342,81.0867,1.9972,81.748,1.9972"/>
		<path class="st2" d="M86.8076,7.0566c0.6613,0,1.1982,0.5369,1.1982,1.1983c0,0.6613-0.5369,1.1982-1.1982,1.1982
			c-0.6627,0-1.1982-0.5369-1.1982-1.1982C85.6094,7.5935,86.1449,7.0566,86.8076,7.0566"/>
		<path class="st2" d="M86.8076,1.9972c0.6613,0,1.1982,0.5369,1.1982,1.1983c0,0.6613-0.5369,1.1982-1.1982,1.1982
			c-0.6627,0-1.1982-0.5369-1.1982-1.1982C85.6094,2.5342,86.1449,1.9972,86.8076,1.9972"/>
		<path class="st2" d="M91.867,12.1159c0.6613,0,1.1982,0.5369,1.1982,1.1983c0,0.6613-0.5369,1.1982-1.1982,1.1982
			c-0.6627,0-1.1982-0.5369-1.1982-1.1982C90.6687,12.6529,91.2043,12.1159,91.867,12.1159"/>
		<path class="st2" d="M91.867,7.0566c0.6613,0,1.1982,0.5369,1.1982,1.1983c0,0.6613-0.5369,1.1982-1.1982,1.1982
			c-0.6627,0-1.1982-0.5369-1.1982-1.1982C90.6687,7.5935,91.2043,7.0566,91.867,7.0566"/>
		<path class="st2" d="M91.867,1.9972c0.6613,0,1.1982,0.5369,1.1982,1.1983c0,0.6613-0.5369,1.1982-1.1982,1.1982
			c-0.6627,0-1.1982-0.5369-1.1982-1.1982C90.6687,2.5342,91.2043,1.9972,91.867,1.9972"/>
		<path class="st2" d="M96.9263,17.1752c0.6613,0,1.1982,0.5369,1.1982,1.1983c0,0.6613-0.5369,1.1982-1.1982,1.1982
			c-0.6627,0-1.1982-0.5369-1.1982-1.1982C95.7281,17.7121,96.2636,17.1752,96.9263,17.1752"/>
		<path class="st2" d="M96.9263,12.1159c0.6613,0,1.1982,0.5369,1.1982,1.1983c0,0.6613-0.5369,1.1982-1.1982,1.1982
			c-0.6627,0-1.1982-0.5369-1.1982-1.1982C95.7281,12.6529,96.2636,12.1159,96.9263,12.1159"/>
		<path class="st2" d="M96.9263,7.0566c0.6613,0,1.1982,0.5369,1.1982,1.1983c0,0.6613-0.5369,1.1982-1.1982,1.1982
			c-0.6627,0-1.1982-0.5369-1.1982-1.1982C95.7281,7.5935,96.2636,7.0566,96.9263,7.0566"/>
		<path class="st2" d="M96.9263,1.9972c0.6613,0,1.1982,0.5369,1.1982,1.1983c0,0.6613-0.5369,1.1982-1.1982,1.1982
			c-0.6627,0-1.1982-0.5369-1.1982-1.1982C95.7281,2.5342,96.2636,1.9972,96.9263,1.9972"/>
		<path class="st2" d="M101.9855,22.2345c0.6613,0,1.1982,0.5369,1.1982,1.1983c0,0.6613-0.5369,1.1982-1.1982,1.1982
			c-0.6627,0-1.1982-0.5369-1.1982-1.1982C100.7873,22.7714,101.3229,22.2345,101.9855,22.2345"/>
		<path class="st2" d="M101.9855,17.1752c0.6613,0,1.1982,0.5369,1.1982,1.1983c0,0.6613-0.5369,1.1982-1.1982,1.1982
			c-0.6627,0-1.1982-0.5369-1.1982-1.1982C100.7873,17.7121,101.3229,17.1752,101.9855,17.1752"/>
		<path class="st2" d="M101.9855,12.1159c0.6613,0,1.1982,0.5369,1.1982,1.1983c0,0.6613-0.5369,1.1982-1.1982,1.1982
			c-0.6627,0-1.1982-0.5369-1.1982-1.1982C100.7873,12.6529,101.3229,12.1159,101.9855,12.1159"/>
		<path class="st2" d="M101.9855,7.0566c0.6613,0,1.1982,0.5369,1.1982,1.1983c0,0.6613-0.5369,1.1982-1.1982,1.1982
			c-0.6627,0-1.1982-0.5369-1.1982-1.1982C100.7873,7.5935,101.3229,7.0566,101.9855,7.0566"/>
		<path class="st2" d="M101.9855,1.9972c0.6613,0,1.1982,0.5369,1.1982,1.1983c0,0.6613-0.5369,1.1982-1.1982,1.1982
			c-0.6627,0-1.1982-0.5369-1.1982-1.1982C100.7873,2.5342,101.3229,1.9972,101.9855,1.9972"/>
		<path class="st2" d="M107.0449,27.2939c0.6613,0,1.1982,0.5369,1.1982,1.1983c0,0.6613-0.5369,1.1982-1.1982,1.1982
			c-0.6627,0-1.1982-0.5369-1.1982-1.1982C105.8467,27.8308,106.3822,27.2939,107.0449,27.2939"/>
		<path class="st2" d="M107.0449,22.2345c0.6613,0,1.1982,0.5369,1.1982,1.1983c0,0.6613-0.5369,1.1982-1.1982,1.1982
			c-0.6627,0-1.1982-0.5369-1.1982-1.1982C105.8467,22.7714,106.3822,22.2345,107.0449,22.2345"/>
		<path class="st2" d="M107.0449,17.1752c0.6613,0,1.1982,0.5369,1.1982,1.1983c0,0.6613-0.5369,1.1982-1.1982,1.1982
			c-0.6627,0-1.1982-0.5369-1.1982-1.1982C105.8467,17.7121,106.3822,17.1752,107.0449,17.1752"/>
		<path class="st2" d="M107.0449,12.1159c0.6613,0,1.1982,0.5369,1.1982,1.1983c0,0.6613-0.5369,1.1982-1.1982,1.1982
			c-0.6627,0-1.1982-0.5369-1.1982-1.1982C105.8467,12.6529,106.3822,12.1159,107.0449,12.1159"/>
		<path class="st2" d="M107.0449,7.0566c0.6613,0,1.1982,0.5369,1.1982,1.1983c0,0.6613-0.5369,1.1982-1.1982,1.1982
			c-0.6627,0-1.1982-0.5369-1.1982-1.1982C105.8467,7.5935,106.3822,7.0566,107.0449,7.0566"/>
		<path class="st2" d="M107.0449,1.9972c0.6613,0,1.1982,0.5369,1.1982,1.1983c0,0.6613-0.5369,1.1982-1.1982,1.1982
			c-0.6627,0-1.1982-0.5369-1.1982-1.1982C105.8467,2.5342,106.3822,1.9972,107.0449,1.9972"/>
	</g>
	<polygon class="st2" points="110.2401,36.7467 110.2401,73.493 73.4938,36.7467 	"/>
	<polygon class="st1" points="85.7422,48.9957 82.6803,45.9339 82.6803,73.4932 85.7422,73.4932 	"/>
	<polygon class="st1" points="76.5557,73.4935 79.6175,73.4935 79.6175,42.8709 76.5557,39.8091 	"/>
	<polygon class="st1" points="107.178,73.4935 110.2398,73.4935 107.178,70.4316 	"/>
	<polygon class="st1" points="91.867,55.1202 88.8051,52.0584 88.8051,73.494 91.867,73.494 	"/>
	<polygon class="st1" points="104.1159,67.369 101.054,64.3071 101.054,73.494 104.1159,73.494 	"/>
	<polygon class="st1" points="97.9911,61.2446 94.9292,58.1828 94.9292,73.4933 97.9911,73.4933 	"/>
	<polygon class="st0" points="73.4936,110.24 36.7473,110.24 73.4936,73.4938 	"/>
	<g>
		<path class="st2" d="M38.744,101.9854c0-0.6613,0.5369-1.1982,1.1982-1.1982c0.6613,0,1.1982,0.5369,1.1982,1.1982
			c0,0.6613-0.5369,1.1983-1.1982,1.1983C39.2809,103.1837,38.744,102.6468,38.744,101.9854"/>
		<path class="st2" d="M43.8034,96.9261c0-0.6613,0.5369-1.1982,1.1982-1.1982c0.6613,0,1.1982,0.5369,1.1982,1.1982
			c0,0.6613-0.5369,1.1982-1.1982,1.1982C44.3403,98.1243,43.8034,97.5874,43.8034,96.9261"/>
		<path class="st2" d="M38.744,96.9261c0-0.6613,0.5369-1.1982,1.1982-1.1982c0.6613,0,1.1982,0.5369,1.1982,1.1982
			c0,0.6613-0.5369,1.1982-1.1982,1.1982C39.2809,98.1243,38.744,97.5874,38.744,96.9261"/>
		<path class="st2" d="M48.8627,91.8669c0-0.6613,0.5369-1.1982,1.1982-1.1982c0.6613,0,1.1982,0.5369,1.1982,1.1982
			c0,0.6613-0.5369,1.1982-1.1982,1.1982C49.3996,93.0651,48.8627,92.5282,48.8627,91.8669"/>
		<path class="st2" d="M43.8034,91.8669c0-0.6613,0.5369-1.1982,1.1982-1.1982c0.6613,0,1.1982,0.5369,1.1982,1.1982
			c0,0.6613-0.5369,1.1982-1.1982,1.1982C44.3403,93.0651,43.8034,92.5282,43.8034,91.8669"/>
		<path class="st2" d="M38.744,91.8669c0-0.6613,0.5369-1.1982,1.1982-1.1982c0.6613,0,1.1982,0.5369,1.1982,1.1982
			c0,0.6613-0.5369,1.1982-1.1982,1.1982C39.2809,93.0651,38.744,92.5282,38.744,91.8669"/>
		<path class="st2" d="M53.9219,86.8075c0-0.6613,0.5369-1.1982,1.1982-1.1982c0.6613,0,1.1982,0.5369,1.1982,1.1982
			c0,0.6613-0.5369,1.1982-1.1982,1.1982C54.4588,88.0058,53.9219,87.4688,53.9219,86.8075"/>
		<path class="st2" d="M48.8627,86.8075c0-0.6613,0.5369-1.1982,1.1982-1.1982c0.6613,0,1.1982,0.5369,1.1982,1.1982
			c0,0.6613-0.5369,1.1982-1.1982,1.1982C49.3996,88.0058,48.8627,87.4688,48.8627,86.8075"/>
		<path class="st2" d="M43.8034,86.8075c0-0.6613,0.5369-1.1982,1.1982-1.1982c0.6613,0,1.1982,0.5369,1.1982,1.1982
			c0,0.6613-0.5369,1.1982-1.1982,1.1982C44.3403,88.0058,43.8034,87.4688,43.8034,86.8075"/>
		<path class="st2" d="M38.744,86.8075c0-0.6613,0.5369-1.1982,1.1982-1.1982c0.6613,0,1.1982,0.5369,1.1982,1.1982
			c0,0.6613-0.5369,1.1982-1.1982,1.1982C39.2809,88.0058,38.744,87.4688,38.744,86.8075"/>
		<path class="st2" d="M58.9813,81.7481c0-0.6613,0.5369-1.1982,1.1982-1.1982c0.6613,0,1.1982,0.5369,1.1982,1.1982
			c0,0.6613-0.5369,1.1983-1.1982,1.1983C59.5182,82.9464,58.9813,82.4095,58.9813,81.7481"/>
		<path class="st2" d="M53.9219,81.7481c0-0.6613,0.5369-1.1982,1.1982-1.1982c0.6613,0,1.1982,0.5369,1.1982,1.1982
			c0,0.6613-0.5369,1.1983-1.1982,1.1983C54.4588,82.9464,53.9219,82.4095,53.9219,81.7481"/>
		<path class="st2" d="M48.8627,81.7481c0-0.6613,0.5369-1.1982,1.1982-1.1982c0.6613,0,1.1982,0.5369,1.1982,1.1982
			c0,0.6613-0.5369,1.1983-1.1982,1.1983C49.3996,82.9464,48.8627,82.4095,48.8627,81.7481"/>
		<path class="st2" d="M43.8034,81.7481c0-0.6613,0.5369-1.1982,1.1982-1.1982c0.6613,0,1.1982,0.5369,1.1982,1.1982
			c0,0.6613-0.5369,1.1983-1.1982,1.1983C44.3403,82.9464,43.8034,82.4095,43.8034,81.7481"/>
		<path class="st2" d="M38.744,81.7481c0-0.6613,0.5369-1.1982,1.1982-1.1982c0.6613,0,1.1982,0.5369,1.1982,1.1982
			c0,0.6613-0.5369,1.1983-1.1982,1.1983C39.2809,82.9464,38.744,82.4095,38.744,81.7481"/>
		<path class="st2" d="M64.0407,76.6888c0-0.6613,0.5369-1.1982,1.1982-1.1982c0.6613,0,1.1982,0.5369,1.1982,1.1982
			c0,0.6613-0.5369,1.1983-1.1982,1.1983C64.5776,77.8871,64.0407,77.3501,64.0407,76.6888"/>
		<path class="st2" d="M58.9813,76.6888c0-0.6613,0.5369-1.1982,1.1982-1.1982c0.6613,0,1.1982,0.5369,1.1982,1.1982
			c0,0.6613-0.5369,1.1983-1.1982,1.1983C59.5182,77.8871,58.9813,77.3501,58.9813,76.6888"/>
		<path class="st2" d="M53.9219,76.6888c0-0.6613,0.5369-1.1982,1.1982-1.1982c0.6613,0,1.1982,0.5369,1.1982,1.1982
			c0,0.6613-0.5369,1.1983-1.1982,1.1983C54.4588,77.8871,53.9219,77.3501,53.9219,76.6888"/>
		<path class="st2" d="M48.8627,76.6888c0-0.6613,0.5369-1.1982,1.1982-1.1982c0.6613,0,1.1982,0.5369,1.1982,1.1982
			c0,0.6613-0.5369,1.1983-1.1982,1.1983C49.3996,77.8871,48.8627,77.3501,48.8627,76.6888"/>
		<path class="st2" d="M43.8034,76.6888c0-0.6613,0.5369-1.1982,1.1982-1.1982c0.6613,0,1.1982,0.5369,1.1982,1.1982
			c0,0.6613-0.5369,1.1983-1.1982,1.1983C44.3403,77.8871,43.8034,77.3501,43.8034,76.6888"/>
		<path class="st2" d="M38.744,76.6888c0-0.6613,0.5369-1.1982,1.1982-1.1982c0.6613,0,1.1982,0.5369,1.1982,1.1982
			c0,0.6613-0.5369,1.1983-1.1982,1.1983C39.2809,77.8871,38.744,77.3501,38.744,76.6888"/>
	</g>
	<polygon class="st2" points="0,36.7467 36.7462,36.7467 0,73.493 	"/>
	<polygon class="st3" points="73.4936,73.4935 110.2398,73.4935 73.4936,110.2397 	"/>
	<polygon class="st3" points="0,36.7467 0,0.0005 18.3738,18.3729 	"/>
	<polygon class="st3" points="36.7468,0 36.7468,36.7463 18.3743,18.3738 	"/>
	<polygon class="st4" points="36.7468,73.4935 36.7468,110.2397 18.3743,91.8673 	"/>
	<polygon class="st4" points="0,110.5512 0,73.8049 18.3738,92.1774 	"/>
	<g>
		<path class="st0" d="M138.5837,61.8484c2.3984,0,3.7744,1.1851,3.7744,3.2563c0,2.1528-1.376,3.4067-3.7744,3.4067h-2.1938v2.875
			h-1.6079v-9.5381H138.5837z M136.3899,67.0671h2.126c1.4717,0,2.3027-0.627,2.3027-1.9214c0-1.2534-0.8311-1.853-2.3027-1.853
			h-2.126V67.0671z"/>
		<path class="st0" d="M150.7371,67.762c0,2.1802-1.54,3.6792-3.7744,3.6792c-2.2485,0-3.7881-1.499-3.7881-3.6792
			c0-2.1938,1.5396-3.6792,3.7881-3.6792C149.197,64.0828,150.7371,65.5681,150.7371,67.762z M144.7415,67.7756
			c0,1.4033,0.9131,2.3574,2.2212,2.3574c1.2944,0,2.207-0.9541,2.207-2.3574c0-1.3901-0.9126-2.3438-2.207-2.3438
			C145.6545,65.4319,144.7415,66.3855,144.7415,67.7756z"/>
		<path class="st0" d="M158.9519,71.3865h-1.5669v-1.417c-0.4907,1.0083-1.4038,1.458-2.5894,1.4717
			c-1.6621,0-2.6567-1.063-2.6567-2.7935v-4.5103h1.5669v4.0742c0,1.0898,0.6401,1.7578,1.6895,1.7578
			c1.2539-0.0273,1.9897-0.9946,1.9897-2.2622v-3.5698h1.5669V71.3865z"/>
		<path class="st0" d="M162.8337,65.5818c0.4907-0.981,1.3628-1.499,2.5073-1.499v1.499c-1.458-0.082-2.3848,0.7769-2.5073,2.0166
			v3.7881h-1.5669v-7.249h1.5669V65.5818z"/>
		<path class="st0" d="M170.218,71.3865V61.2761h1.5664v10.1104H170.218z"/>
		<path class="st0" d="M180.5452,68.3616h-5.4775c0.2451,1.1172,1.1035,1.812,2.248,1.812c0.79,0,1.5127-0.2998,2.0439-0.8447
			l0.8311,0.8857c-0.708,0.7769-1.7441,1.2266-2.9971,1.2266c-2.2354,0-3.707-1.4854-3.707-3.6655
			c0-2.1938,1.5127-3.6792,3.666-3.6929C179.7004,64.0828,180.7356,65.7454,180.5452,68.3616z M179.1829,67.217
			c-0.0547-1.1719-0.8311-1.8804-2.0166-1.8804c-1.1445,0-1.9492,0.7222-2.126,1.8804H179.1829z"/>
		<path class="st0" d="M186.8801,64.8049l-0.5723,1.1582c-0.6406-0.395-1.4443-0.6401-2.085-0.6401
			c-0.6133,0-1.0625,0.2041-1.0625,0.7222c0,1.3354,3.8555,0.6133,3.8418,3.2427c0,1.4854-1.3213,2.1533-2.7793,2.1533
			c-1.0625,0-2.1934-0.3545-2.916-1.0083l0.5586-1.1177c0.627,0.5586,1.6348,0.8994,2.4258,0.8994
			c0.667,0,1.1855-0.2314,1.1855-0.7769c0-1.4849-3.8154-0.6538-3.8017-3.27c0-1.4717,1.2803-2.0986,2.6709-2.0986
			C185.2581,64.0691,186.2258,64.3415,186.8801,64.8049z"/>
		<path class="st0" d="M193.759,71.3865l-2.8066-7.249h1.6348l2.0166,5.7095l1.9902-5.7095h1.5664l-2.7793,7.249H193.759z"/>
		<path class="st0" d="M200.9387,62.0662c0,0.5449-0.3945,0.9404-0.9131,0.9404c-0.5176,0-0.9131-0.3955-0.9131-0.9404
			c0-0.5586,0.3955-0.9536,0.9131-0.9536C200.5442,61.1125,200.9387,61.5076,200.9387,62.0662z M199.2493,71.3865v-7.249h1.5537
			v7.249H199.2493z"/>
		<path class="st0" d="M203.1868,71.3865V61.2761h1.5664v10.1104H203.1868z"/>
		<path class="st0" d="M207.2063,71.3865V61.2761h1.5664v10.1104H207.2063z"/>
		<path class="st0" d="M217.5334,68.3616h-5.4775c0.2451,1.1172,1.1035,1.812,2.248,1.812c0.79,0,1.5127-0.2998,2.0439-0.8447
			l0.8311,0.8857c-0.708,0.7769-1.7441,1.2266-2.9971,1.2266c-2.2354,0-3.707-1.4854-3.707-3.6655
			c0-2.1938,1.5127-3.6792,3.666-3.6929C216.6887,64.0828,217.7239,65.7454,217.5334,68.3616z M216.1711,67.217
			c-0.0547-1.1719-0.8311-1.8804-2.0166-1.8804c-1.1445,0-1.9492,0.7222-2.126,1.8804H216.1711z"/>
		<path class="st0" d="M223.8684,64.8049l-0.5723,1.1582c-0.6406-0.395-1.4444-0.6401-2.085-0.6401
			c-0.6133,0-1.0625,0.2041-1.0625,0.7222c0,1.3354,3.8555,0.6133,3.8418,3.2427c0,1.4854-1.3213,2.1533-2.7793,2.1533
			c-1.0625,0-2.1934-0.3545-2.916-1.0083l0.5586-1.1177c0.627,0.5586,1.6348,0.8994,2.4258,0.8994
			c0.667,0,1.1855-0.2314,1.1855-0.7769c0-1.4849-3.8154-0.6538-3.8018-3.27c0-1.4717,1.2803-2.0986,2.6709-2.0986
			C222.2463,64.0691,223.2141,64.3415,223.8684,64.8049z"/>
		<path class="st0" d="M141.0637,83.0334h-5.4775c0.2451,1.1172,1.1035,1.812,2.248,1.812c0.7905,0,1.5127-0.2998,2.0439-0.8447
			l0.8315,0.8857c-0.709,0.7769-1.7441,1.2266-2.998,1.2266c-2.2344,0-3.7061-1.4854-3.7061-3.6655
			c0-2.1938,1.5122-3.6792,3.6655-3.6929C140.219,78.7546,141.2546,80.4172,141.0637,83.0334z M139.7014,81.8889
			c-0.0547-1.1719-0.8315-1.8804-2.0171-1.8804c-1.1445,0-1.9482,0.7222-2.1255,1.8804H139.7014z"/>
		<path class="st0" d="M146.7991,85.595c-0.5723,0.3408-1.1719,0.5317-1.7852,0.5317c-1.0898,0-2.0303-0.627-2.0303-2.1123v-3.7607
			h-1.022v-1.1719h1.022v-1.9893h1.5532v1.9893h2.1396v1.1719h-2.1396v3.4746c0,0.7495,0.2861,0.981,0.7769,0.981
			c0.3271,0,0.6675-0.1089,1.0903-0.3135L146.7991,85.595z"/>
		<path class="st0" d="M155.8591,85.595c-0.5723,0.3408-1.1719,0.5317-1.7852,0.5317c-1.0898,0-2.0303-0.627-2.0303-2.1123v-3.7607
			h-1.022v-1.1719h1.022v-1.9893h1.5532v1.9893h2.1396v1.1719h-2.1396v3.4746c0,0.7495,0.2861,0.981,0.7769,0.981
			c0.3271,0,0.6675-0.1089,1.0903-0.3135L155.8591,85.595z"/>
		<path class="st0" d="M163.5974,83.0334h-5.4775c0.2451,1.1172,1.1035,1.812,2.248,1.812c0.7905,0,1.5127-0.2998,2.0439-0.8447
			l0.8315,0.8857c-0.709,0.7769-1.7441,1.2266-2.998,1.2266c-2.2344,0-3.7061-1.4854-3.7061-3.6655
			c0-2.1938,1.5122-3.6792,3.665-3.6929C162.7527,78.7546,163.7883,80.4172,163.5974,83.0334z M162.2351,81.8889
			c-0.0547-1.1719-0.8315-1.8804-2.0171-1.8804c-1.1445,0-1.9482,0.7222-2.1255,1.8804H162.2351z"/>
		<path class="st0" d="M166.7981,80.2537c0.4907-0.981,1.3628-1.499,2.5068-1.499v1.499c-1.4575-0.082-2.3843,0.7769-2.5068,2.0166
			v3.7881h-1.5669v-7.249h1.5669V80.2537z"/>
		<path class="st0" d="M172.1663,80.2537c0.4902-0.981,1.3623-1.499,2.5068-1.499v1.499c-1.458-0.082-2.3848,0.7769-2.5068,2.0166
			v3.7881h-1.5674v-7.249h1.5674V80.2537z"/>
		<path class="st0" d="M177.6565,76.738c0,0.5449-0.3945,0.9404-0.9131,0.9404c-0.5176,0-0.9131-0.3955-0.9131-0.9404
			c0-0.5586,0.3955-0.9536,0.9131-0.9536C177.262,75.7844,177.6565,76.1794,177.6565,76.738z M175.967,86.0583v-7.249h1.5537v7.249
			H175.967z"/>
		<path class="st0" d="M183.9377,85.595c-0.5723,0.3408-1.1719,0.5317-1.7852,0.5317c-1.0898,0-2.0303-0.627-2.0303-2.1123v-3.7607
			h-1.0215v-1.1719h1.0215v-1.9893h1.5537v1.9893h2.1387v1.1719h-2.1387v3.4746c0,0.7495,0.2861,0.981,0.7764,0.981
			c0.3271,0,0.668-0.1089,1.0898-0.3135L183.9377,85.595z"/>
		<path class="st0" d="M192.1799,82.4338c0,2.1802-1.5391,3.6792-3.7744,3.6792c-2.248,0-3.7881-1.499-3.7881-3.6792
			c0-2.1938,1.54-3.6792,3.7881-3.6792C190.6409,78.7546,192.1799,80.24,192.1799,82.4338z M186.1848,82.4475
			c0,1.4033,0.9131,2.3574,2.2207,2.3574c1.2949,0,2.208-0.9541,2.208-2.3574c0-1.3901-0.9131-2.3438-2.208-2.3438
			C187.0979,80.1038,186.1848,81.0574,186.1848,82.4475z"/>
		<path class="st0" d="M195.5032,76.738c0,0.5449-0.3945,0.9404-0.9131,0.9404c-0.5176,0-0.9131-0.3955-0.9131-0.9404
			c0-0.5586,0.3955-0.9536,0.9131-0.9536C195.1086,75.7844,195.5032,76.1794,195.5032,76.738z M193.8137,86.0583v-7.249h1.5537
			v7.249H193.8137z"/>
		<path class="st0" d="M199.2502,80.2537c0.4902-0.981,1.3623-1.499,2.5068-1.499v1.499c-1.458-0.082-2.3848,0.7769-2.5068,2.0166
			v3.7881h-1.5674v-7.249h1.5674V80.2537z"/>
		<path class="st0" d="M209.428,83.0334h-5.4775c0.2451,1.1172,1.1035,1.812,2.248,1.812c0.79,0,1.5127-0.2998,2.0439-0.8447
			l0.8311,0.8857c-0.708,0.7769-1.7441,1.2266-2.9971,1.2266c-2.2354,0-3.707-1.4854-3.707-3.6655
			c0-2.1938,1.5127-3.6792,3.666-3.6929C208.5833,78.7546,209.6184,80.4172,209.428,83.0334z M208.0657,81.8889
			c-0.0547-1.1719-0.8311-1.8804-2.0166-1.8804c-1.1445,0-1.9492,0.7222-2.126,1.8804H208.0657z"/>
		<path class="st0" d="M215.7629,79.4768l-0.5723,1.1582c-0.6406-0.395-1.4443-0.6401-2.085-0.6401
			c-0.6133,0-1.0625,0.2041-1.0625,0.7222c0,1.3354,3.8555,0.6133,3.8418,3.2427c0,1.4854-1.3213,2.1533-2.7793,2.1533
			c-1.0625,0-2.1934-0.3545-2.916-1.0083l0.5586-1.1177c0.627,0.5586,1.6348,0.8994,2.4258,0.8994
			c0.667,0,1.1855-0.2314,1.1855-0.7769c0-1.4849-3.8154-0.6538-3.8018-3.27c0-1.4717,1.2803-2.0986,2.6709-2.0986
			C214.1409,78.741,215.1086,79.0134,215.7629,79.4768z"/>
		<path class="st0" d="M227.8879,86.0583h-1.5664v-1.2397c-0.5186,0.8447-1.3906,1.3081-2.5488,1.3081
			c-2.084,0-3.4746-1.5127-3.4746-3.7202c0-2.1802,1.4043-3.6655,3.4482-3.6655c1.1709,0,2.043,0.4771,2.5752,1.3218V75.948h1.5664
			V86.0583z M226.3215,82.4612c0-1.4038-0.9131-2.3848-2.2217-2.3848c-1.3076,0-2.2207,0.9946-2.2344,2.3848
			c0.0137,1.376,0.9131,2.3574,2.2344,2.3574C225.4084,84.8186,226.3215,83.8372,226.3215,82.4612z"/>
		<path class="st0" d="M236.8518,86.0583h-1.5664v-1.417c-0.4912,1.0083-1.4033,1.458-2.5889,1.4717
			c-1.6631,0-2.6572-1.063-2.6572-2.7935v-4.5103h1.5664v4.0742c0,1.0898,0.6406,1.7578,1.6904,1.7578
			c1.2529-0.0273,1.9893-0.9946,1.9893-2.2622v-3.5698h1.5664V86.0583z"/>
		<path class="st0" d="M240.7346,80.2537c0.4902-0.981,1.3623-1.499,2.5068-1.499v1.499c-1.458-0.082-2.3848,0.7769-2.5068,2.0166
			v3.7881h-1.5674v-7.249h1.5674V80.2537z"/>
		<path class="st0" d="M248.5959,85.1726c-0.5176,0.6406-1.3486,0.9541-2.3984,0.9541c-1.5664,0-2.5479-0.9678-2.5479-2.2485
			c0-1.3218,0.9951-2.1665,2.7393-2.1802h2.1934v-0.2178c0-0.9131-0.5859-1.458-1.7305-1.458c-0.6953,0-1.417,0.2451-2.1396,0.7354
			l-0.6396-1.0898c1.0078-0.5996,1.7441-0.9131,3.1201-0.9131c1.8662,0,2.916,0.9541,2.9297,2.5483l0.0137,4.7554h-1.54V85.1726z
			 M248.5823,83.5105v-0.668h-1.9619c-1.0225,0-1.499,0.2725-1.499,0.9673c0,0.6543,0.5312,1.0767,1.4033,1.0767
			C247.6418,84.8865,248.5002,84.3005,248.5823,83.5105z"/>
		<path class="st0" d="M259.8635,82.4612c0,2.1665-1.3633,3.6519-3.4336,3.6519c-1.1582,0-2.0303-0.4634-2.5625-1.3081v1.2534
			h-1.5664V75.948h1.5664v4.1147c0.5322-0.8447,1.4043-1.3081,2.5352-1.3081C258.4602,78.7546,259.8635,80.2537,259.8635,82.4612z
			 M258.2825,82.4065c0-1.3491-0.9131-2.3438-2.207-2.3438c-1.2949,0-2.208,0.981-2.208,2.3438c0,1.4033,0.9131,2.3711,2.208,2.3711
			C257.3694,84.7776,258.2825,83.7966,258.2825,82.4065z"/>
		<path class="st0" d="M261.5657,86.0583V75.948h1.5664v10.1104H261.5657z"/>
		<path class="st0" d="M271.8928,83.0334h-5.4775c0.2451,1.1172,1.1035,1.812,2.248,1.812c0.79,0,1.5127-0.2998,2.0439-0.8447
			l0.8311,0.8857c-0.708,0.7769-1.7441,1.2266-2.9971,1.2266c-2.2354,0-3.707-1.4854-3.707-3.6655
			c0-2.1938,1.5127-3.6792,3.666-3.6929C271.0481,78.7546,272.0833,80.4172,271.8928,83.0334z M270.5305,81.8889
			c-0.0547-1.1719-0.8311-1.8804-2.0166-1.8804c-1.1445,0-1.9492,0.7222-2.126,1.8804H270.5305z"/>
		<path class="st0" d="M278.2278,79.4768l-0.5723,1.1582c-0.6406-0.395-1.4443-0.6401-2.085-0.6401
			c-0.6133,0-1.0625,0.2041-1.0625,0.7222c0,1.3354,3.8555,0.6133,3.8418,3.2427c0,1.4854-1.3213,2.1533-2.7793,2.1533
			c-1.0625,0-2.1934-0.3545-2.916-1.0083l0.5586-1.1177c0.627,0.5586,1.6348,0.8994,2.4258,0.8994
			c0.667,0,1.1855-0.2314,1.1855-0.7769c0-1.4849-3.8154-0.6538-3.8018-3.27c0-1.4717,1.2803-2.0986,2.6709-2.0986
			C276.6057,78.741,277.5735,79.0134,278.2278,79.4768z"/>
	</g>
	<g>
		<path class="st0" d="M140.4396,96.9493c0.4444,0.3446,0.6656,0.8198,0.6656,1.4238c0,0.4607-0.1252,0.8416-0.3773,1.1481
			c-0.2485,0.3065-0.6004,0.5061-1.0502,0.6004c0.5605,0.0816,0.9976,0.2956,1.3078,0.6439
			c0.3102,0.3464,0.4661,0.7854,0.4661,1.3168c0,0.6566-0.2503,1.1717-0.7436,1.5454c-0.4952,0.3736-1.1808,0.5586-2.0514,0.5586
			h-3.3211v-7.754h3.2648C139.384,96.4324,139.9952,96.6047,140.4396,96.9493 M136.2225,99.7807h2.3362
			c0.5224,0,0.9286-0.1088,1.2171-0.3283c0.2884-0.2177,0.4317-0.5296,0.4317-0.9359c0-0.3954-0.1433-0.6965-0.4317-0.9105
			c-0.2884-0.2122-0.6947-0.3174-1.2171-0.3174h-2.3362V99.7807z M136.2225,103.3448h2.3362c0.6348,0,1.1246-0.1215,1.4746-0.3591
			c0.3464-0.2412,0.5206-0.5822,0.5206-1.0266c0-0.4208-0.1741-0.7491-0.526-0.9849c-0.3519-0.234-0.8416-0.3501-1.4692-0.3501
			h-2.3362V103.3448z"/>
		<path class="st0" d="M147.0394,98.7018c0.4498,0.2449,0.7999,0.5931,1.052,1.0393c0.2539,0.448,0.3773,0.9559,0.3773,1.5218
			c0,0.5768-0.1233,1.0865-0.3773,1.5345c-0.2521,0.448-0.6022,0.7963-1.052,1.0447c-0.4498,0.2521-0.9577,0.3755-1.5254,0.3755
			c-0.5732,0-1.081-0.1233-1.5326-0.3755c-0.4498-0.2485-0.7981-0.5967-1.0502-1.0447c-0.2521-0.448-0.3755-0.9577-0.3755-1.5345
			c0-0.5713,0.1234-1.0792,0.3755-1.5236c0.2521-0.4444,0.6004-0.7926,1.0502-1.0375c0.4516-0.2467,0.9595-0.3718,1.5326-0.3718
			C146.0818,98.33,146.5896,98.4551,147.0394,98.7018 M144.4312,99.3893c-0.321,0.185-0.5695,0.4389-0.7455,0.7672
			c-0.1777,0.3265-0.2648,0.6983-0.2648,1.1173c0,0.4208,0.0871,0.7963,0.2648,1.1246c0.1759,0.3283,0.4244,0.584,0.7455,0.769
			c0.321,0.185,0.6802,0.2775,1.0828,0.2775c0.399,0,0.7582-0.0925,1.0792-0.2775c0.3229-0.185,0.5714-0.4408,0.7455-0.769
			c0.1777-0.3283,0.2648-0.7038,0.2648-1.1246c0-0.4244-0.0871-0.7962-0.2648-1.1227c-0.1741-0.3229-0.4244-0.5768-0.7491-0.7618
			c-0.3229-0.1832-0.682-0.2757-1.0756-0.2757C145.1114,99.1136,144.7522,99.2061,144.4312,99.3893"/>
		<path class="st0" d="M151.6655,98.6683c0.3537-0.2249,0.7781-0.341,1.2697-0.3501v0.8706
			c-0.6058-0.0036-1.0901,0.1614-1.4583,0.506c-0.3664,0.3446-0.5786,0.809-0.6348,1.3948v3.0961h-0.8561v-5.835h0.8561v1.2932
			C151.038,99.2178,151.3118,98.8932,151.6655,98.6683"/>
		<path class="st0" d="M159.4572,104.1871h-0.8652v-1.2497c-0.2195,0.4154-0.5242,0.7328-0.9105,0.9577
			c-0.3882,0.2231-0.8416,0.3337-1.3604,0.3337c-0.5478,0-1.0357-0.1233-1.4619-0.3755c-0.4262-0.2485-0.76-0.6004-0.9958-1.0502
			c-0.2358-0.4498-0.3537-0.9631-0.3537-1.5399c0-0.5768,0.1179-1.0901,0.3537-1.5345c0.2358-0.4444,0.5659-0.7944,0.9922-1.0429
			c0.4262-0.2521,0.9105-0.3755,1.4547-0.3755c0.5151,0,0.9722,0.1106,1.3694,0.3355c0.3936,0.2231,0.7001,0.5441,0.9123,0.9649
			v-3.6421h0.8652V104.1871z M157.5763,103.1786c0.3174-0.185,0.5659-0.4444,0.7455-0.7745
			c0.1814-0.3337,0.2703-0.7074,0.2703-1.1209c0-0.4226-0.0889-0.7981-0.2703-1.1318c-0.1796-0.3301-0.4281-0.5895-0.7455-0.7781
			c-0.3174-0.1868-0.6802-0.2811-1.0883-0.2811c-0.4063,0-0.769,0.0943-1.0919,0.2811c-0.321,0.1886-0.5714,0.4498-0.7509,0.7836
			c-0.1814,0.3337-0.2703,0.7092-0.2703,1.1264c0,0.4135,0.0889,0.7872,0.2703,1.1209c0.1796,0.3301,0.4299,0.5895,0.7509,0.7745
			c0.3229,0.185,0.6856,0.2775,1.0919,0.2775C156.8962,103.4561,157.2589,103.3636,157.5763,103.1786"/>
		<path class="st0" d="M166.0105,99.2104c0.4661,0.584,0.6747,1.3857,0.6276,2.396h-4.7576
			c0.0707,0.5695,0.2993,1.0212,0.6838,1.3585c0.3827,0.3356,0.8615,0.5024,1.4311,0.5024c0.3591,0,0.6929-0.0635,0.9994-0.1886
			c0.3065-0.127,0.575-0.3065,0.8053-0.5423l0.4752,0.5079c-0.2793,0.312-0.6221,0.5514-1.023,0.7201
			c-0.4027,0.1687-0.8452,0.2539-1.3241,0.2539c-0.5677,0-1.0738-0.1215-1.5127-0.37c-0.4389-0.2467-0.7817-0.5931-1.0248-1.0393
			c-0.2431-0.448-0.3646-0.9595-0.3646-1.5363s0.1215-1.0901,0.37-1.5345c0.2467-0.4444,0.5931-0.7908,1.0357-1.0375
			c0.4444-0.2449,0.9468-0.37,1.5073-0.37C164.8551,98.3307,165.5462,98.6245,166.0105,99.2104 M165.294,99.5641
			c-0.3519-0.3283-0.809-0.4915-1.3767-0.4915c-0.555,0-1.0157,0.1632-1.3857,0.497c-0.37,0.3301-0.5877,0.7745-0.6512,1.3313
			h3.9849C165.8363,100.3368,165.6459,99.8924,165.294,99.5641"/>
		<path class="st0" d="M171.7422,103.29c-0.4661,0.6258-1.1772,0.9377-2.1348,0.9377c-0.3936,0-0.7419-0.0762-1.0429-0.2285
			c-0.2993-0.1578-0.5314-0.3718-0.6965-0.6421c-0.1633-0.2721-0.2449-0.5768-0.2449-0.9123c0-0.5079,0.1923-0.9105,0.5768-1.2116
			c0.3827-0.2993,0.9178-0.4516,1.6052-0.4571h1.9154v-0.3428c0-0.4353-0.1306-0.7727-0.3954-1.0067
			c-0.2684-0.2358-0.6548-0.3555-1.1681-0.3555c-0.5895,0-1.2062,0.2231-1.8483,0.6638l-0.3609-0.6312
			c0.4135-0.2739,0.7962-0.4716,1.1463-0.5967c0.3483-0.1233,0.76-0.1868,1.2334-0.1868c0.7165,0,1.2697,0.1777,1.656,0.5296
			c0.3863,0.3537,0.584,0.8452,0.5931,1.4819l0.0109,3.8543h-0.8452V103.29z M171.0385,103.1304
			c0.3501-0.2322,0.5822-0.5532,0.6929-0.9613v-0.6983h-1.8174c-0.9867,0-1.4801,0.3156-1.4801,0.9432
			c0,0.3247,0.1197,0.5822,0.3628,0.7745c0.2449,0.1941,0.5695,0.292,0.9776,0.292
			C170.2695,103.4804,170.6902,103.3625,171.0385,103.1304"/>
		<path class="st0" d="M179.5668,104.1867h-0.8597v-1.3204c-0.3755,0.8869-1.1137,1.3386-2.2183,1.3531
			c-0.6765,0-1.208-0.2013-1.5979-0.6094c-0.3863-0.4045-0.5786-0.9577-0.5786-1.6614v-3.5968h0.8597v3.3628
			c0,0.5169,0.1433,0.9196,0.4317,1.208c0.2884,0.2884,0.682,0.4317,1.1844,0.4317c0.5986-0.0091,1.0665-0.2068,1.4075-0.604
			c0.341-0.3954,0.5115-0.9051,0.5115-1.5327v-2.8658h0.8597V104.1867z"/>
		<polygon class="st0" points="185.1145,98.3521 186.0721,98.3521 184.1187,101.1853 186.2136,104.1871 185.207,104.1871 
			183.5455,101.8074 181.826,104.1871 180.8539,104.1871 182.9796,101.1853 181.0008,98.3521 181.9947,98.3521 183.5455,100.5649 		
			"/>
		<g>
			<path class="st0" d="M187.9614,103.2998c0.1034,0.1052,0.1542,0.2412,0.1542,0.4099c0,0.1487-0.0562,0.3065-0.1669,0.477
				l-0.5188,0.7963h-0.4879l0.3682-0.8071c-0.1632-0.0979-0.2431-0.2576-0.2431-0.477c0-0.1614,0.0508-0.2938,0.1487-0.399
				c0.0979-0.1034,0.2213-0.156,0.37-0.156C187.7347,103.1438,187.858,103.1964,187.9614,103.2998"/>
		</g>
		<polygon class="st0" points="195.7553,101.2935 195.7553,99.2512 196.5841,99.2512 196.5841,101.2935 197.7559,101.2935 
			197.7559,102.1479 196.5841,102.1479 196.5841,104.1866 195.7553,104.1866 195.7553,102.1479 192.0297,102.1479 
			192.0297,101.4187 194.8139,96.4326 195.6863,96.4326 192.9874,101.2935 		"/>
		<rect x="198.7821" y="100.5093" class="st0" width="2.6028" height="0.6439"/>
		<path class="st0" d="M206.9942,96.5508c0.3936,0.1016,0.7509,0.2358,1.0665,0.4063l-0.3555,0.7092
			c-0.2539-0.1487-0.5369-0.2648-0.8507-0.3501c-0.3156-0.0853-0.6258-0.127-0.9305-0.127c-0.7582,0-1.3458,0.2721-1.7612,0.8198
			c-0.4153,0.546-0.6221,1.2914-0.6221,2.2364c0,0.1741,0.0054,0.3102,0.0109,0.399c0.1687-0.4571,0.4571-0.809,0.8597-1.0556
			c0.4045-0.2431,0.8887-0.3682,1.4547-0.3682c0.76,0,1.3603,0.2231,1.7993,0.662c0.4426,0.4389,0.662,1.0321,0.662,1.7793
			c0,0.7872-0.2376,1.4148-0.7146,1.8755c-0.4752,0.4607-1.11,0.6929-1.9081,0.6929c-0.9432,0-1.685-0.3283-2.2201-0.9849
			c-0.5369-0.6548-0.8035-1.5798-0.8035-2.7678c0-0.8108,0.1288-1.5254,0.3863-2.1421c0.2594-0.6167,0.6276-1.0937,1.1064-1.4293
			c0.4807-0.3392,1.0447-0.5061,1.6923-0.5061C206.2234,96.4003,206.5988,96.4511,206.9942,96.5508 M204.6708,100.2165
			c-0.2938,0.1596-0.5206,0.37-0.6802,0.6385c-0.1578,0.263-0.2358,0.5496-0.2267,0.8616
			c-0.0091,0.2648,0.0598,0.5296,0.1995,0.7908c0.1415,0.263,0.3537,0.477,0.6385,0.6493c0.283,0.1723,0.633,0.2557,1.0429,0.2557
			c0.555,0,1.0031-0.1578,1.3404-0.4752c0.3392-0.3174,0.5097-0.7473,0.5097-1.286c0-0.5169-0.1614-0.9232-0.4825-1.2225
			c-0.3192-0.2993-0.7545-0.448-1.2968-0.448C205.3129,99.9807,204.9664,100.0605,204.6708,100.2165"/>
		<path class="st0" d="M213.2252,105.862c-0.3102,0.3374-0.7038,0.5042-1.1826,0.5042c-0.4444,0-0.847-0.1324-1.2062-0.3954
			l0.3065-0.7092c0.2757,0.1995,0.555,0.2975,0.8434,0.2975c0.2684,0,0.4734-0.0853,0.6203-0.2594
			c0.1451-0.1723,0.2195-0.4335,0.2195-0.7836v-6.1633h0.8652v6.0544C213.6913,105.0421,213.5354,105.5264,213.2252,105.862
			 M213.6805,96.247c0.1106,0.1161,0.1669,0.2594,0.1669,0.4281c0,0.1705-0.0562,0.3156-0.1669,0.4353
			c-0.1107,0.1179-0.254,0.1759-0.4226,0.1759c-0.1633,0-0.2993-0.058-0.4136-0.1741c-0.1142-0.1161-0.1687-0.2612-0.1687-0.4371
			c0-0.1687,0.0544-0.312,0.1687-0.4281c0.1143-0.1197,0.2503-0.1777,0.4136-0.1777
			C213.4265,96.0693,213.5698,96.1273,213.6805,96.247"/>
		<path class="st0" d="M220.8709,104.1867h-0.8598v-1.3204c-0.3755,0.8869-1.1137,1.3386-2.2182,1.3531
			c-0.6766,0-1.208-0.2013-1.5979-0.6094c-0.3863-0.4045-0.5786-0.9577-0.5786-1.6614v-3.5968h0.8597v3.3628
			c0,0.5169,0.1433,0.9196,0.4317,1.208c0.2884,0.2884,0.682,0.4317,1.1844,0.4317c0.5986-0.0091,1.0665-0.2068,1.4075-0.604
			c0.3428-0.3954,0.5115-0.9051,0.5115-1.5327v-2.8658h0.8598V104.1867z"/>
		<path class="st0" d="M223.8016,96.2523c0.1088,0.1124,0.1614,0.2539,0.1614,0.4226s-0.0526,0.312-0.1614,0.4281
			c-0.1088,0.1143-0.2431,0.1723-0.4045,0.1723c-0.1651,0-0.2957-0.0544-0.4045-0.1687c-0.107-0.1143-0.1596-0.2576-0.1596-0.4317
			c0-0.1687,0.0526-0.3102,0.1596-0.4226c0.1088-0.1143,0.2394-0.1705,0.4045-0.1705
			C223.5585,96.0818,223.6928,96.138,223.8016,96.2523 M222.9799,98.3527h0.8489v5.835h-0.8489V98.3527z"/>
		<path class="st0" d="M230.6826,98.9226c0.3918,0.4027,0.5876,0.9559,0.5876,1.6614v3.6022h-0.8652v-3.3682
			c0-0.5169-0.1451-0.916-0.4408-1.2044c-0.2902-0.2884-0.6947-0.4335-1.208-0.4335c-0.5714,0.0073-1.0266,0.1814-1.3676,0.5206
			c-0.3446,0.341-0.5423,0.7908-0.5967,1.3495v3.136h-0.8597v-5.835h0.8597v1.2824c0.399-0.8652,1.1536-1.3041,2.26-1.315
			C229.7485,98.3186,230.2908,98.5199,230.6826,98.9226"/>
		<path class="st0" d="M239.9449,96.9169c0.4262,0.3446,0.6403,0.8071,0.6403,1.3912c0,0.3555-0.1215,0.7473-0.3646,1.179
			c-0.243,0.4299-0.5768,0.8724-1.003,1.3295l-2.3851,2.5284h4.1971v0.8416h-5.3271v-0.7291l2.9039-3.1596
			c0.3247-0.3229,0.5822-0.653,0.7727-0.9885c0.1923-0.3337,0.2884-0.6276,0.2884-0.8815c0-0.3736-0.1378-0.6693-0.4099-0.8833
			c-0.2702-0.214-0.6511-0.3228-1.139-0.3228c-0.3519,0-0.7146,0.0834-1.0901,0.2539c-0.3718,0.1687-0.7147,0.4081-1.023,0.7092
			l-0.39-0.7092c0.3755-0.3392,0.789-0.6004,1.2443-0.7908c0.4552-0.1886,0.9105-0.283,1.3676-0.283
			C238.9437,96.4017,239.5187,96.5722,239.9449,96.9169"/>
		<path class="st0" d="M247.758,97.42c0.5532,0.6711,0.8307,1.6342,0.8307,2.8894c0,1.2533-0.2775,2.2165-0.8307,2.8894
			c-0.5532,0.6711-1.344,1.0085-2.3706,1.0085s-1.8174-0.3374-2.3688-1.0085c-0.5532-0.6729-0.8271-1.636-0.8271-2.8894
			c0-1.2551,0.2775-2.2183,0.8307-2.8894c0.5514-0.6729,1.3404-1.0085,2.3652-1.0085
			C246.414,96.4115,247.2048,96.7471,247.758,97.42 M243.6643,97.9515c-0.3864,0.5242-0.5822,1.3096-0.5822,2.3579
			c0,1.0429,0.1995,1.8247,0.5895,2.3543c0.3954,0.5296,0.9667,0.7908,1.7158,0.7908c0.7527,0,1.3259-0.2612,1.7159-0.7908
			c0.3936-0.5296,0.5877-1.3114,0.5877-2.3543c0-1.0484-0.1941-1.8337-0.5822-2.3579c-0.3881-0.5206-0.9631-0.7836-1.7213-0.7836
			C244.6274,97.1679,244.0542,97.4309,243.6643,97.9515"/>
		<path class="st0" d="M253.944,96.9169c0.4262,0.3446,0.6403,0.8071,0.6403,1.3912c0,0.3555-0.1215,0.7473-0.3646,1.179
			c-0.2431,0.4299-0.5768,0.8724-1.003,1.3295l-2.3851,2.5284h4.1971v0.8416h-5.3253v-0.7291l2.9021-3.1596
			c0.3247-0.3229,0.5822-0.653,0.7727-0.9885c0.1923-0.3337,0.2884-0.6276,0.2884-0.8815c0-0.3736-0.1378-0.6693-0.4099-0.8833
			c-0.2703-0.214-0.6511-0.3228-1.1373-0.3228c-0.3519,0-0.7146,0.0834-1.0919,0.2539c-0.37,0.1687-0.7128,0.4081-1.023,0.7092
			l-0.39-0.7092c0.3773-0.3392,0.7926-0.6004,1.2443-0.7908c0.4552-0.1886,0.9105-0.283,1.3676-0.283
			C252.9446,96.4017,253.5177,96.5722,253.944,96.9169"/>
		<path class="st0" d="M261.7572,97.42c0.5532,0.6711,0.8307,1.6342,0.8307,2.8894c0,1.2533-0.2775,2.2165-0.8307,2.8894
			c-0.5532,0.6711-1.344,1.0085-2.3706,1.0085c-1.0266,0-1.8174-0.3374-2.3688-1.0085c-0.5514-0.6729-0.8289-1.636-0.8289-2.8894
			c0-1.2551,0.2775-2.2183,0.8325-2.8894c0.5514-0.6729,1.3404-1.0085,2.3652-1.0085
			C260.4132,96.4115,261.204,96.7471,261.7572,97.42 M257.6635,97.9515c-0.3864,0.5242-0.5804,1.3096-0.5804,2.3579
			c0,1.0429,0.1959,1.8247,0.5877,2.3543c0.3954,0.5296,0.9667,0.7908,1.7159,0.7908c0.7527,0,1.324-0.2612,1.7158-0.7908
			c0.3918-0.5296,0.5877-1.3114,0.5877-2.3543c0-1.0484-0.1959-1.8337-0.5822-2.3579c-0.3863-0.5206-0.9631-0.7836-1.7213-0.7836
			C258.6266,97.1679,258.0516,97.4309,257.6635,97.9515"/>
	</g>
</g>
</svg>
